/* XPM */
static char * one_white[] = {
"10 10 2 1", /* largeur 10, hauteur 10, 2 couleurs, 1 caractère par pixel */
"  c #000000", /* ' ' représente le noir */
"1 c #FFFFFF", /* '1' représente le blanc */
"          ",
"    11    ",
"   111    ",
"    11    ",
"    11    ",
"    11    ",
"    11    ",
"   1111   ",
"          ",
"          "};
